<?xml version="1.0" encoding="UTF-8" standalone="no"?>
<!DOCTYPE svg PUBLIC "-//W3C//DTD SVG 1.1//EN" "http://www.w3.org/Graphics/SVG/1.1/DTD/svg11.dtd">
<svg width="100%" height="100%" viewBox="0 0 202 47" version="1.1" xmlns="http://www.w3.org/2000/svg" xmlns:xlink="http://www.w3.org/1999/xlink" xml:space="preserve" xmlns:serif="http://www.serif.com/" style="fill-rule:evenodd;clip-rule:evenodd;stroke-linejoin:round;stroke-miterlimit:2;">
    <g transform="matrix(1,0,0,1,-584.225,-1119.22)">
        <g transform="matrix(1,0,0,1,-33.7896,33.9368)">
            <path d="M618.015,1122.25L625.144,1122.25L625.144,1107.21C625.144,1103.79 627.17,1101.45 630.368,1101.45C633.566,1101.45 635.178,1103.4 635.178,1106.82L635.178,1122.25L642.307,1122.25L642.307,1105.36C642.307,1099.23 639.035,1095.54 633.273,1095.54C629.318,1095.54 626.633,1097.37 625.29,1100.38L625.144,1100.38L625.144,1096.08L618.015,1096.08L618.015,1122.25Z" style="fill:rgb(88,166,255);fill-rule:nonzero;"/>
        </g>
        <g transform="matrix(1,0,0,1,-26.033,33.9368)">
            <path d="M684.372,1122.79C688.327,1122.79 691.013,1120.93 692.355,1117.93L692.502,1117.93L692.502,1122.25L699.631,1122.25L699.631,1096.08L692.502,1096.08L692.502,1111.12C692.502,1114.54 690.476,1116.88 687.277,1116.88C684.079,1116.88 682.468,1114.9 682.468,1111.48L682.468,1096.08L675.339,1096.08L675.339,1112.97C675.339,1119.1 678.61,1122.79 684.372,1122.79Z" style="fill:rgb(88,166,255);fill-rule:nonzero;"/>
        </g>
        <g transform="matrix(1,0,0,1,-26.033,33.9368)">
            <path d="M704.27,1130.8L711.398,1130.8L711.398,1117.78L711.545,1117.78C712.961,1120.88 715.915,1122.79 719.65,1122.79C726.193,1122.79 730.246,1117.66 730.246,1109.16L730.246,1109.14C730.246,1100.62 726.193,1095.54 719.553,1095.54C715.842,1095.54 712.985,1097.47 711.569,1100.64L711.398,1100.64L711.398,1096.08L704.27,1096.08L704.27,1130.8ZM717.209,1116.88C713.742,1116.88 711.374,1113.9 711.374,1109.19L711.374,1109.16C711.374,1104.43 713.742,1101.45 717.209,1101.45C720.749,1101.45 722.995,1104.36 722.995,1109.14L722.995,1109.16C722.995,1113.92 720.749,1116.88 717.209,1116.88Z" style="fill:white;fill-rule:nonzero;"/>
        </g>
        <g transform="matrix(1,0,0,1,-26.033,33.9368)">
            <rect x="734.104" y="1087.02" width="7.129" height="35.229" style="fill:white;fill-rule:nonzero;"/>
        </g>
        <g transform="matrix(1,0,0,1,-26.033,33.9368)">
            <path d="M749.753,1092.71C751.901,1092.71 753.562,1091.03 753.562,1089C753.562,1086.97 751.901,1085.29 749.753,1085.29C747.604,1085.29 745.944,1086.97 745.944,1089C745.944,1091.03 747.604,1092.71 749.753,1092.71ZM746.188,1122.25L753.317,1122.25L753.317,1096.08L746.188,1096.08L746.188,1122.25Z" style="fill:white;fill-rule:nonzero;"/>
        </g>
        <g transform="matrix(1,0,0,1,-26.033,33.9368)">
            <path d="M758.078,1122.25L765.207,1122.25L765.207,1107.21C765.207,1103.79 767.233,1101.45 770.432,1101.45C773.63,1101.45 775.241,1103.4 775.241,1106.82L775.241,1122.25L782.37,1122.25L782.37,1105.36C782.37,1099.23 779.099,1095.54 773.337,1095.54C769.382,1095.54 766.696,1097.37 765.354,1100.38L765.207,1100.38L765.207,1096.08L758.078,1096.08L758.078,1122.25Z" style="fill:white;fill-rule:nonzero;"/>
        </g>
        <g transform="matrix(1,0,0,1,-26.033,33.9368)">
            <path d="M799.118,1131.33C806.979,1131.33 811.887,1127.35 811.887,1121.52L811.887,1096.08L804.758,1096.08L804.758,1100.55L804.611,1100.55C803.195,1097.5 800.339,1095.54 796.652,1095.54C790.036,1095.54 785.935,1100.5 785.935,1108.85L785.935,1108.87C785.935,1117 789.987,1121.88 796.53,1121.88C800.314,1121.88 803.244,1120.15 804.611,1117.42L804.758,1117.42L804.758,1121.42C804.758,1124.35 802.805,1126.25 799.118,1126.25C796.14,1126.25 794.235,1125.13 793.674,1123.84L793.601,1123.67L786.667,1123.67L786.691,1123.89C787.375,1128.09 791.916,1131.33 799.118,1131.33ZM798.996,1116.66C795.432,1116.66 793.186,1113.75 793.186,1109.04L793.186,1109.02C793.186,1104.33 795.456,1101.45 798.996,1101.45C802.463,1101.45 804.782,1104.36 804.782,1109.02L804.782,1109.04C804.782,1113.73 802.487,1116.66 798.996,1116.66Z" style="fill:white;fill-rule:nonzero;"/>
        </g>
        <g transform="matrix(0.769231,0,0,1,74.8405,116.079)">
            <path d="M742.913,1027.56C742.913,1035.08 734.978,1041.18 725.203,1041.18L714.56,1041.18C704.786,1041.18 696.85,1035.08 696.85,1027.56C696.85,1020.04 704.786,1013.94 714.56,1013.94L725.203,1013.94C734.978,1013.94 742.913,1020.04 742.913,1027.56ZM732.08,1027.56C732.08,1024.64 728.999,1022.27 725.203,1022.27L714.56,1022.27C710.765,1022.27 707.684,1024.64 707.684,1027.56C707.684,1030.48 710.765,1032.85 714.56,1032.85L725.203,1032.85C728.999,1032.85 732.08,1030.48 732.08,1027.56Z" style="fill:rgb(88,166,255);"/>
        </g>
    </g>
</svg>
